<svg xmlns="http://www.w3.org/2000/svg" fill="none" viewBox="0 0 105 17"><path fill="#fff" d="M18.6 17h-10.81a7.5 7.5 0 0 1-5.63-2.45 8 8 0 0 1-1.55-2.67 10 10 0 0 1-.56-3.28q0-1.74.56-3.26a8 8 0 0 1 1.55-2.67 7.3 7.3 0 0 1 5.63-2.47h10.82v2.4h-10.82a5.1 5.1 0 0 0-4.97 3.67q-.36 1.08-.36 2.33 0 1.24.36 2.34.37 1.09 1.06 1.91a5 5 0 0 0 3.9 1.75h8.42v-4.8h-10.17v-2.4h12.58zm22.3-4.8q0 1-.47 1.88a5 5 0 0 1-1.3 1.53 6 6 0 0 1-1.9 1.02q-1.09.37-2.32.37h-13.42v-2.4h13.42q.73 0 1.4-.19.64-.18 1.13-.52.49-.32.77-.76.3-.44.3-.93v-1.2h-11.02a5.9 5.9 0 0 1-5.53-3.66 6 6 0 0 1-.47-2.34v-4.8h2.4v4.8a3.5 3.5 0 0 0 1.04 2.55 3.7 3.7 0 0 0 2.56 1.05h11.01v-8.4h2.4zm16 4.8h-2.41v-8.4a5.8 5.8 0 0 0-1.76-4.23 6 6 0 0 0-4.24-1.77h-1.3v14.4h-2.4v-16.8h3.7q1.14 0 2.2.3a8.3 8.3 0 0 1 3.68 2.12q.75.75 1.33 1.67a8.4 8.4 0 0 1 7.2-4.1h3.7v16.81h-2.4v-14.4h-1.3q-1.25 0-2.34.48a6.1 6.1 0 0 0-3.67 5.52z"/><path fill="#FAFF00" d="M85.29 17h-15.6v-4.8a4.6 4.6 0 0 1 1.4-3.38 5 5 0 0 1 3.4-1.42h6a2.3 2.3 0 0 0 1.69-.7 2.4 2.4 0 0 0 .71-1.7q0-.5-.2-.93a2.4 2.4 0 0 0-2.2-1.47h-9.6v-2.4h9.6q1 0 1.85.38.88.38 1.53 1.03a4.7 4.7 0 0 1 1.42 3.39q0 .99-.4 1.86a4.8 4.8 0 0 1-4.4 2.94h-6a2.4 2.4 0 0 0-1.7.7q-.34.34-.54.77-.18.43-.18.93v2.4h13.22zm2.21-16.8h2.4v6a2.4 2.4 0 0 0 2.4 2.4h9.6v-8.4h2.4v16.8h-2.4v-6h-9.6a4.7 4.7 0 0 1-3.4-1.4 4.7 4.7 0 0 1-1.4-3.4z"/></svg>