<svg xmlns="http://www.w3.org/2000/svg" xmlns:xlink="http://www.w3.org/1999/xlink"><symbol id="sprite-clock" fill="none" viewBox="0 0 49 48"><path fill="#000" d="M48.01 23.72a23.56 23.56 0 1 1-23.56-23.56.74.74 0 0 1 0 1.47 22.1 22.1 0 0 0-21.54 17.15 22.1 22.1 0 1 0 38.87-8.74l-.19 1.94a.74.74 0 0 1-.73.66h-.08a.74.74 0 0 1-.65-.8l.36-3.69c.04-.4.4-.7.8-.66l3.69.37a.74.74 0 1 1-.15 1.46l-1.88-.18a23.5 23.5 0 0 1 5.06 14.58m-23.56-17.66a17.66 17.66 0 0 1 12.49 30.15 17.66 17.66 0 0 1-24.98 0 17.7 17.7 0 0 1-5.17-12.49 17.7 17.7 0 0 1 17.66-17.66m9.04 7.58 1.87-1.87a16 16 0 0 0-10.18-4.22v2.65a.74.74 0 1 1-1.47 0v-2.65a16 16 0 0 0-10.17 4.22l1.87 1.87a.74.74 0 0 1-1.04 1.05l-1.87-1.87a16 16 0 0 0-4.23 10.17h2.66a.74.74 0 1 1 0 1.47h-2.65a16 16 0 0 0 4.22 10.17l1.87-1.86a.74.74 0 1 1 1.04 1.04l-1.87 1.86a16 16 0 0 0 10.17 4.22v-2.65a.74.74 0 1 1 1.47 0v2.65a16 16 0 0 0 10.17-4.22l-1.86-1.86a.74.74 0 0 1 1.04-1.04l1.87 1.86a16 16 0 0 0 4.22-10.17h-2.65a.74.74 0 1 1 0-1.47h2.65a16 16 0 0 0-4.22-10.18l-1.87 1.87a.74.74 0 0 1-1.04-1.04m-3.75 14.34a.74.74 0 1 1-1.04 1.04l-3.32-3.32a2.19 2.19 0 1 1-1.67-4.03v-7.2a.74.74 0 1 1 1.48 0v7.2a2.2 2.2 0 0 1 1.23 2.99zm-5.29-3.54a.71.71 0 1 0 0-1.43.71.71 0 0 0 0 1.43"/></symbol><use xlink:href="#sprite-clock" width="49" height="48"/><view id="sprite-clock-view" viewBox="0 0 49 48"/><symbol id="sprite-email" viewBox="0 -2.5 20 20"><path fill-rule="evenodd" d="m18 2.3-8 7.02-8-7.04v-.28h16zm-16 10.7v-8.05l8 7.03 8-7.03v8.05zm-2 2h20v-15h-20z"/></symbol><use xlink:href="#sprite-email" width="800" height="800" y="48"/><view id="sprite-email-view" viewBox="0 48 800 800"/><symbol id="sprite-equipment" fill="none" viewBox="0 0 51 53"><path fill="#000" d="M35.7 29.13h-20.52a.6.6 0 0 1-.58-.59c0-.32.25-.58.58-.58h20.5c.33 0 .59.26.59.58a.57.57 0 0 1-.57.59m0-4.07h-20.52a.6.6 0 0 1-.58-.58c0-.33.25-.59.58-.59h20.5c.33 0 .59.26.59.59a.57.57 0 0 1-.57.58"/><path fill="#000" d="M14.03 34.42h-1.3a1.74 1.74 0 0 1-1.73-1.74v-12.33c0-.96.78-1.74 1.74-1.74h1.29c.95 0 1.73.78 1.73 1.74v12.33a1.73 1.73 0 0 1-1.73 1.74m-1.3-14.64a.57.57 0 0 0-.56.57v12.34c0 .32.25.57.57.57h1.29a.57.57 0 0 0 .57-.57v-12.34a.57.57 0 0 0-.57-.57z"/><path fill="#000" d="M10.44 32.15h-1.3a1.74 1.74 0 0 1-1.73-1.73v-7.8c0-.96.78-1.74 1.73-1.74h1.3c.95 0 1.73.78 1.73 1.74a.6.6 0 0 1-.58.58.6.6 0 0 1-.59-.58.57.57 0 0 0-.57-.57h-1.29a.57.57 0 0 0-.57.57v7.8c0 .31.26.57.57.57h1.3a.57.57 0 0 0 .56-.57c0-.33.26-.59.59-.59s.58.26.58.59c0 .95-.78 1.73-1.74 1.73"/><path fill="#000" d="M6.84 30.58h-1.29a1.74 1.74 0 0 1-1.73-1.73v-4.67c0-.95.78-1.73 1.73-1.73h1.3c.95 0 1.73.78 1.73 1.73a.6.6 0 0 1-.59.59.6.6 0 0 1-.58-.58.57.57 0 0 0-.57-.57h-1.29a.57.57 0 0 0-.57.57v4.66c0 .31.26.57.57.57h1.3a.57.57 0 0 0 .56-.57c0-.33.26-.59.58-.59.33 0 .58.26.58.59 0 .95-.77 1.73-1.73 1.73"/><path fill="#000" d="M4.4 29.13h-3.34a.6.6 0 0 1-.58-.59v-4.07c0-.32.26-.58.59-.58h3.33c.33 0 .58.26.58.58a.6.6 0 0 1-.58.59h-2.75v2.9h2.75c.33 0 .58.26.58.58a.6.6 0 0 1-.58.59m31.3-17.68h-20.52a.6.6 0 0 1-.58-.58c0-.32.25-.58.58-.58h20.5c.33 0 .59.26.59.58a.57.57 0 0 1-.57.58m0-4.07h-20.52a.6.6 0 0 1-.58-.58c0-.32.25-.58.58-.58h20.5c.33 0 .59.26.59.58a.57.57 0 0 1-.57.58"/><path fill="#000" d="M13.63 16.74h-1.73a2.13 2.13 0 0 1-2.13-2.12v-11.56c0-1.17.96-2.13 2.13-2.13h1.73c1.18 0 2.13.96 2.13 2.13v11.54a2.13 2.13 0 0 1-2.13 2.14m-1.73-14.65a.96.96 0 0 0-.96.97v11.54c0 .54.43.97.96.97h1.73c.54 0 .97-.43.97-.97v-11.54a.96.96 0 0 0-.97-.96z"/><path fill="#000" d="M8.8 13.05h-1.73a2.13 2.13 0 0 1-2.12-2.13v-4.16c0-1.18.95-2.13 2.13-2.13h1.73c1.17 0 2.13.95 2.13 2.13a.6.6 0 0 1-.59.58.6.6 0 0 1-.58-.58.96.96 0 0 0-.96-.97h-1.74a.96.96 0 0 0-.96.97v4.15c0 .53.43.96.97.96h1.73c.53 0 .96-.43.96-.96 0-.33.26-.58.58-.58.33 0 .59.25.59.58 0 1.18-.96 2.14-2.13 2.14m30.17 3.7h-1.73a2.13 2.13 0 0 1-2.13-2.13v-11.56c0-1.17.95-2.13 2.13-2.13h1.73c1.17 0 2.13.96 2.13 2.13v11.54a2.13 2.13 0 0 1-2.13 2.14m-1.73-14.65a.96.96 0 0 0-.97.97v11.54c0 .54.43.97.97.97h1.73c.53 0 .96-.43.96-.97v-11.54a.96.96 0 0 0-.96-.96z"/><path fill="#000" d="M43.81 13.05h-1.73a2.13 2.13 0 0 1-2.13-2.13c0-.33.26-.58.58-.58.33 0 .59.25.59.58 0 .53.43.96.96.96h1.73c.54 0 .97-.43.97-.96v-4.16a.96.96 0 0 0-.97-.97h-1.73a.96.96 0 0 0-.96.97.6.6 0 0 1-.58.58.6.6 0 0 1-.59-.58c0-1.18.96-2.13 2.13-2.13h1.73c1.18 0 2.13.95 2.13 2.13v4.15c0 1.18-.95 2.14-2.13 2.14m-8.11 33.76h-20.52a.6.6 0 0 1-.58-.58c0-.33.25-.58.58-.58h20.5c.33 0 .59.25.59.58a.57.57 0 0 1-.57.58m0-4.07h-20.52a.6.6 0 0 1-.58-.58c0-.33.25-.58.58-.58h20.5c.33 0 .59.25.59.58a.57.57 0 0 1-.57.58"/><path fill="#000" d="M13.63 52.1h-1.73a2.13 2.13 0 0 1-2.13-2.13v-11.54c0-1.18.96-2.13 2.13-2.13h1.73c1.18 0 2.13.95 2.13 2.13v11.54a2.13 2.13 0 0 1-2.13 2.13m-1.73-14.65a.96.96 0 0 0-.96.97v11.54c0 .53.43.97.96.97h1.73c.54 0 .97-.43.97-.97v-11.55a.96.96 0 0 0-.97-.96z"/><path fill="#000" d="M8.8 48.4h-1.73a2.13 2.13 0 0 1-2.12-2.13v-4.15c0-1.17.95-2.12 2.13-2.12h1.73c1.17 0 2.13.95 2.13 2.12a.6.6 0 0 1-.59.59.6.6 0 0 1-.58-.59.96.96 0 0 0-.96-.96h-1.74a.96.96 0 0 0-.96.96v4.15c0 .54.43.97.97.97h1.73c.53 0 .96-.43.96-.97 0-.32.26-.58.58-.58.33 0 .59.26.59.58a2.13 2.13 0 0 1-2.13 2.13m30.17 3.7h-1.73a2.13 2.13 0 0 1-2.13-2.13v-11.54c0-1.18.95-2.13 2.13-2.13h1.73c1.17 0 2.13.95 2.13 2.13v11.54a2.13 2.13 0 0 1-2.13 2.13m-1.73-14.65a.96.96 0 0 0-.97.97v11.54c0 .53.43.97.97.97h1.73c.53 0 .96-.43.96-.97v-11.55a.96.96 0 0 0-.96-.96z"/><path fill="#000" d="M43.81 48.4h-1.73a2.13 2.13 0 0 1-2.13-2.13c0-.32.26-.58.58-.58.33 0 .59.26.59.58 0 .54.43.97.96.97h1.73c.54 0 .97-.43.97-.97v-4.15a.96.96 0 0 0-.97-.96h-1.73a.96.96 0 0 0-.96.96.6.6 0 0 1-.58.58.6.6 0 0 1-.59-.58c0-1.17.96-2.12 2.13-2.12h1.73c1.18 0 2.13.95 2.13 2.12v4.15a2.13 2.13 0 0 1-2.13 2.13m-5.67-13.98h-1.29a1.74 1.74 0 0 1-1.73-1.74v-12.33c0-.96.78-1.74 1.73-1.74h1.29c.95 0 1.73.78 1.73 1.74v12.33c0 .96-.78 1.74-1.73 1.74m-1.29-14.64a.57.57 0 0 0-.57.57v12.34c0 .32.26.57.57.57h1.3a.57.57 0 0 0 .56-.57v-12.34a.57.57 0 0 0-.57-.57z"/><path fill="#000" d="M41.73 32.15h-1.29a1.74 1.74 0 0 1-1.73-1.73c0-.33.26-.59.58-.59.33 0 .58.26.58.59 0 .31.26.57.57.57h1.3a.57.57 0 0 0 .56-.57v-7.8a.57.57 0 0 0-.57-.57h-1.29a.57.57 0 0 0-.57.57.6.6 0 0 1-.58.58.6.6 0 0 1-.58-.58c0-.96.78-1.74 1.73-1.74h1.3c.95 0 1.72.78 1.72 1.74v7.8c0 .95-.77 1.73-1.73 1.73"/><path fill="#000" d="M45.33 30.58h-1.3a1.74 1.74 0 0 1-1.73-1.73c0-.33.26-.58.58-.58.33 0 .58.25.58.58 0 .31.26.57.57.57h1.3a.57.57 0 0 0 .56-.57v-4.67a.57.57 0 0 0-.57-.56h-1.29a.57.57 0 0 0-.57.57.6.6 0 0 1-.58.58.6.6 0 0 1-.58-.58c0-.96.78-1.74 1.73-1.74h1.3c.95 0 1.73.78 1.73 1.73v4.67c0 .95-.78 1.73-1.74 1.73"/><path fill="#000" d="M49.81 29.13h-3.33a.6.6 0 0 1-.58-.59c0-.32.25-.58.57-.58h2.76v-2.9h-2.75a.6.6 0 0 1-.59-.58c0-.33.26-.59.58-.59h3.34c.33 0 .58.26.58.59v4.06a.6.6 0 0 1-.58.59"/></symbol><use xlink:href="#sprite-equipment" width="51" height="53" y="848"/><view id="sprite-equipment-view" viewBox="0 848 51 53"/><symbol id="sprite-fitness-zone" fill="none" viewBox="0 0 59 59"><path fill="#000" d="M14.02 46.57a4.36 4.36 0 0 1-4.36-4.36v-13.9c0-.5.4-.9.9-.9h6.9c.5 0 .91.4.91.9v13.9a4.36 4.36 0 0 1-4.35 4.36m-2.55-17.35v13a2.54 2.54 0 0 0 5.09 0v-13z"/><path fill="#000" d="M16.1 29.22h-4.17a.9.9 0 0 1-.91-.91v-2.82c0-1 .81-1.81 1.81-1.81h2.37c1 0 1.81.81 1.81 1.81v2.82a.9.9 0 0 1-.9.9m-3.28-1.8h2.36v-1.92h-2.36zm34.54 1.8h-4.18a.9.9 0 0 1-.9-.9v-2.82c0-1 .8-1.81 1.8-1.81h2.37c1 0 1.82.81 1.82 1.81v2.82a.9.9 0 0 1-.91.9m-3.27-1.8h2.36v-1.92h-2.36z"/><path fill="#000" d="M45.28 46.57a4.36 4.36 0 0 1-4.36-4.36v-13.9c0-.5.4-.9.9-.9h6.91c.5 0 .9.4.9.9v13.9a4.36 4.36 0 0 1-4.35 4.36m-2.55-17.35v13c0 1.4 1.14 2.54 2.54 2.54h.01c1.4 0 2.54-1.14 2.54-2.54v-13zm-23.6 0h-10.22a.9.9 0 1 1 0-1.82h10.21a.9.9 0 1 1 0 1.82"/><path fill="#000" d="M50.39 29.22h-10.22a.9.9 0 1 1 0-1.82h10.22a.9.9 0 1 1 0 1.82"/><path fill="#000" d="M29.9 34.6a4.85 4.85 0 0 1-4.84-4.84v-19.88a5.07 5.07 0 0 0-5.07-5.07 5.07 5.07 0 0 0-5.07 5.07v14.7a.9.9 0 1 1-1.81 0v-14.7a6.9 6.9 0 0 1 6.88-6.88 6.9 6.9 0 0 1 6.88 6.88v19.88a3.03 3.03 0 0 0 3.03 3.03 3.03 3.03 0 0 0 3.03-3.03v-11.89a6.64 6.64 0 0 1 6.63-6.63 6.64 6.64 0 0 1 6.63 6.63v6.72a.9.9 0 1 1-1.82 0v-6.72a4.8 4.8 0 0 0-4.81-4.82 4.8 4.8 0 0 0-4.82 4.82v11.89a4.85 4.85 0 0 1-4.84 4.84m-12.43 3.3h-6.9a.9.9 0 1 1 0-1.82h6.9a.9.9 0 1 1 0 1.81m0-3.98h-6.9a.9.9 0 1 1 0-1.82h6.9a.9.9 0 1 1 0 1.82m0 7.97h-6.9a.9.9 0 1 1 0-1.82h6.9a.9.9 0 1 1 0 1.82m31.26-3.99h-6.9a.9.9 0 1 1 0-1.81h6.9a.9.9 0 1 1 0 1.81m0-3.98h-6.9a.9.9 0 1 1 0-1.82h6.9a.9.9 0 1 1 0 1.82m0 7.97h-6.9a.9.9 0 1 1 0-1.82h6.9a.9.9 0 1 1 0 1.82"/></symbol><use xlink:href="#sprite-fitness-zone" width="59" height="59" y="901"/><view id="sprite-fitness-zone-view" viewBox="0 901 59 59"/><symbol id="sprite-left-swiper-button" fill="none" viewBox="0 0 18 33"><path d="m17 .4-16 16 16 16"/></symbol><use xlink:href="#sprite-left-swiper-button" width="18" height="33" y="960"/><view id="sprite-left-swiper-button-view" viewBox="0 960 18 33"/><symbol id="sprite-line" fill="none" viewBox="0 0 42 52"><path fill="#000" d="m13.34 48.15 4.43-4.54-5.25-5.38-4.43 4.54zm2.11-4.54-2.11 2.17-2.94-3 2.12-2.18z"/><path fill="#000" d="m41.49 6.71-6.55-6.71h-2.3l-32.39 32.36v1.54l1.3 1.33-1.3 1.33v2.35l11.91 13.09h2.33l7.03-7.2v-2.35l-7.07-7.97zm-39.6 26.49v-.14l4.56-4.55 3.86 3.95 1.15-1.18-3.84-3.94 1.31-1.32 2.2 2.25 1.15-1.18-2.17-2.23 1.3-1.32 3.8 3.9 1.16-1.2-3.78-3.87 1.32-1.31 2.12 2.18 1.16-1.18-2.11-2.17 1.31-1.31 3.73 3.82 1.16-1.18-3.72-3.81 1.32-1.32 2.06 2.12 1.16-1.18-2.05-2.1 1.32-1.32 3.66 3.76 1.16-1.18-3.65-3.75 1.31-1.31 2 2.05 1.16-1.19-1.99-2.03 1.32-1.31 3.6 3.7 1.16-1.2-3.6-3.68 1.32-1.32 1.94 2 1.15-1.2-1.92-1.97 1.31-1.3 3.54 3.62 1.16-1.18-3.52-3.62.82-.82h.97l4.9 5.03-26.14 26.85-9-.88-1.33 1.36zm0 4.05 2.76-2.83 6.88.67-6.47 6.65-3.17-3.5zm18 5.85v1l-6.07 6.22h-.94l-6.7-7.35 7.11-7.3z"/></symbol><use xlink:href="#sprite-line" width="42" height="52" y="993"/><view id="sprite-line-view" viewBox="0 993 42 52"/><symbol id="sprite-logo" fill="none" viewBox="0 0 410 404"><path fill="url(#a)" d="m399.64 59.53-184 329.02a10 10 0 0 1-17.41.07l-187.65-329.06a10 10 0 0 1 10.45-14.8l184.2 32.92a10 10 0 0 0 3.55 0l180.34-32.87a10 10 0 0 1 10.52 14.72"/><path fill="url(#b)" d="m292.96 1.57-136.16 26.69a5 5 0 0 0-4.03 4.6l-8.38 141.47a5 5 0 0 0 6.12 5.17l37.91-8.75a5 5 0 0 1 6.02 5.87l-11.26 55.15a5 5 0 0 0 6.35 5.79l23.42-7.11a5 5 0 0 1 6.35 5.8l-17.9 86.62c-1.12 5.42 6.09 8.38 9.1 3.73l2-3.1 110.95-221.43a5 5 0 0 0-5.41-7.15l-39.03 7.53a5 5 0 0 1-5.75-6.3l25.47-88.28a5 5 0 0 0-5.77-6.3"/><defs><linearGradient id="a" x1="6" x2="235" y1="33" y2="344" gradientUnits="userSpaceOnUse"><stop stop-color="#41D1FF"/><stop offset="1" stop-color="#BD34FE"/></linearGradient><linearGradient id="b" x1="194.651" x2="236.076" y1="8.818" y2="292.989" gradientUnits="userSpaceOnUse"><stop stop-color="#FFEA83"/><stop offset=".083" stop-color="#FFDD35"/><stop offset="1" stop-color="#FFA800"/></linearGradient></defs></symbol><use xlink:href="#sprite-logo" width="410" height="404" y="1045"/><view id="sprite-logo-view" viewBox="0 1045 410 404"/><symbol id="sprite-menu" fill="none" viewBox="0 0 16 12"><path fill="#fff" fill-rule="evenodd" d="M0 0h16v1.5h-16zm0 5.25h16v1.5h-16zm16 5.25h-16v1.5h16z" clip-rule="evenodd"/></symbol><use xlink:href="#sprite-menu" width="16" height="12" y="1449"/><view id="sprite-menu-view" viewBox="0 1449 16 12"/><symbol id="sprite-navigation-pointer" viewBox="0 0 100.353 100.352"><path d="m58.23 70 15-24.12q.07-.11.11-.24a26.7 26.7 0 0 0 3.96-13.97c0-14.77-12.02-26.79-26.79-26.79s-26.79 12.02-26.79 26.79a26.7 26.7 0 0 0 3.96 13.98l.1.21 14.46 24.2c-11.22 1.58-18.6 6.2-18.6 11.79 0 6.93 11.79 12.37 26.83 12.37s26.83-5.44 26.83-12.37c0-5.62-7.72-10.34-19.07-11.86m-27.86-25.7a23.7 23.7 0 0 1-3.65-12.62 23.8 23.8 0 0 1 47.58 0 23.7 23.7 0 0 1-3.65 12.62q-.08.12-.13.25l-15.83 25.47-.58.93-4 6.43-19.6-32.8zm20.1 46.93c-14.04 0-23.83-4.94-23.83-9.37 0-4.02 7.37-7.8 17.29-8.98l4.87 8.15c.27.45.75.73 1.27.73h.01c.52 0 1-.27 1.28-.7l5.12-8.24c10.07 1.09 17.82 4.97 17.82 9.04 0 4.43-9.78 9.37-23.83 9.37"/><path d="M60.21 31.67a9.75 9.75 0 0 0-19.48 0 9.75 9.75 0 0 0 19.48 0m-16.48 0a6.75 6.75 0 1 1 13.5.02 6.75 6.75 0 0 1-13.5-.02"/></symbol><use xlink:href="#sprite-navigation-pointer" width="100.353" height="100.352" y="1461"/><view id="sprite-navigation-pointer-view" viewBox="0 1461 100.353 100.352"/><symbol id="sprite-ok" viewBox="0 0 25 25"><path fill="var(--color-background)" d="M12.5 0a12.5 12.5 0 1 0 0 25 12.5 12.5 0 0 0 0-25"/><path fill="var(--color-content)" d="M12.68 6.89c.9 0 1.63.75 1.63 1.68s-.73 1.68-1.63 1.68-1.63-.75-1.63-1.68.73-1.68 1.63-1.68m0 5.74a4 4 0 0 0 3.94-4.06 4 4 0 0 0-3.94-4.06 4 4 0 0 0-3.93 4.06 4 4 0 0 0 3.93 4.06m1.6 3.31a7 7 0 0 0 2.28-.97c.53-.35.7-1.09.36-1.64a1.13 1.13 0 0 0-1.6-.38 4.9 4.9 0 0 1-5.29 0 1.13 1.13 0 0 0-1.59.38 1.2 1.2 0 0 0 .37 1.64q1.06.69 2.28.97l-2.2 2.27a1.2 1.2 0 0 0 0 1.69 1.14 1.14 0 0 0 1.63 0l2.16-2.24 2.16 2.23c.45.47 1.18.47 1.63 0s.45-1.21 0-1.68z"/></symbol><use xlink:href="#sprite-ok" width="25" height="25" y="1561.352"/><view id="sprite-ok-view" viewBox="0 1561.352 25 25"/><symbol id="sprite-phone" fill="none" viewBox="0 0 24 24"><path stroke="#000" stroke-linecap="round" stroke-linejoin="round" stroke-width="2" d="M3 5.5a15.5 15.5 0 0 0 15.5 15.5q.58 0 1.15-.04c.43-.03.65-.05.85-.16a1 1 0 0 0 .4-.44c.1-.2.1-.44.1-.92v-2.82c0-.4 0-.6-.07-.78a1 1 0 0 0-.27-.4c-.14-.12-.33-.18-.71-.32l-3.21-1.17a2 2 0 0 0-.87-.23 1 1 0 0 0-.52.19c-.17.12-.29.32-.53.72l-.82 1.37a12 12 0 0 1-6-6l1.37-.82c.4-.24.6-.36.72-.53a1 1 0 0 0 .19-.52 3 3 0 0 0-.23-.87l-1.17-3.2c-.14-.39-.2-.58-.33-.72a1 1 0 0 0-.4-.27c-.17-.07-.37-.07-.77-.07h-2.82c-.48 0-.72 0-.92.1a1 1 0 0 0-.44.4c-.11.2-.13.42-.16.85q-.04.57-.04 1.15"/></symbol><use xlink:href="#sprite-phone" width="800" height="800" y="1586.352"/><view id="sprite-phone-view" viewBox="0 1586.352 800 800"/><symbol id="sprite-plus" fill="none" viewBox="0 0 14 14"><path stroke="#1C3374" d="M7 0v7m0 7v-7m0 0h7m-7 0h-7"/></symbol><use xlink:href="#sprite-plus" width="14" height="14" y="2386.352"/><view id="sprite-plus-view" viewBox="0 2386.352 14 14"/><symbol id="sprite-reddit" viewBox="0 0 25 25"><path fill="var(--color-background)" d="M12.5 0a12.5 12.5 0 1 0 0 25 12.5 12.5 0 0 0 0-25"/><path fill="var(--color-content)" d="M13.85 5.56c-.44 0-.86.22-1.13.55s-.42.72-.52 1.14a10 10 0 0 0-.24 2.1 7 7 0 0 0-3.33 1.02 2 2 0 0 0-1.28-.5c-.5 0-.98.23-1.33.67-.68.85-.6 2.24.18 3.06a4 4 0 0 0-.08.78c0 2.8 2.86 5.06 6.38 5.06s6.38-2.26 6.38-5.06q0-.39-.08-.78c.78-.82.86-2.21.18-3.06a1.7 1.7 0 0 0-1.33-.66 2 2 0 0 0-1.28.49 7 7 0 0 0-3.31-1.03 8 8 0 0 1 .18-1.75q.12-.46.27-.64c.1-.13.17-.18.34-.18.36 0 .4.12.63.4q.14.23.43.5c.2.17.5.32.83.32v-1.22c-.09 0-.1 0-.17-.05l-.27-.35c-.25-.32-.73-.81-1.45-.81m3.51.11c-.84 0-1.52.77-1.52 1.71 0 .95.68 1.71 1.52 1.71s1.52-.76 1.52-1.7c0-.95-.68-1.72-1.52-1.72m0 .6c.54 0 .98.5.98 1.11s-.44 1.1-.98 1.1-.98-.49-.98-1.1.44-1.1.98-1.1m-4.86 4.01c3 0 5.52 1.88 5.52 4.1s-2.53 4.08-5.52 4.08-5.52-1.87-5.52-4.09 2.53-4.09 5.52-4.09m-5.13.56q.23 0 .45.11a5 5 0 0 0-1.26 1.6c-.2-.47-.15-1.06.1-1.37a1 1 0 0 1 .7-.34m10.27 0a1 1 0 0 1 .71.34c.25.31.3.9.1 1.37a5 5 0 0 0-1.26-1.6q.23-.1.45-.11m-7.3 1.52c-.53 0-.97.5-.97 1.1s.44 1.1.98 1.1.98-.49.98-1.1c0-.6-.44-1.1-.98-1.1m4.32 0c-.54 0-.98.5-.98 1.1s.44 1.1.98 1.1.98-.49.98-1.1c0-.6-.44-1.1-.98-1.1m-4.85 3.75c.35.8 1.41 1.58 2.69 1.58s2.36-.78 2.7-1.58c-.62.45-1.6.76-2.7.76s-2.06-.31-2.69-.76"/></symbol><use xlink:href="#sprite-reddit" width="25" height="25" y="2400.352"/><view id="sprite-reddit-view" viewBox="0 2400.352 25 25"/><symbol id="sprite-right-swiper-button" fill="none" viewBox="0 0 18 33"><path d="m1 .4 16 16-16 16"/></symbol><use xlink:href="#sprite-right-swiper-button" width="18" height="33" y="2425.352"/><view id="sprite-right-swiper-button-view" viewBox="0 2425.352 18 33"/><symbol id="sprite-ruble" fill="none" viewBox="0 0 24 34"><path fill="#102654" fill-rule="evenodd" d="M14.8 5.21h-6.8v8.65h6.8c2.43 0 4.4-1.94 4.4-4.32a4.36 4.36 0 0 0-4.4-4.33m-11.6-4.71v18.07h11.6c5.08 0 9.2-4.04 9.2-9.03s-4.12-9.04-9.2-9.04z" clip-rule="evenodd"/><path fill="#102654" fill-rule="evenodd" d="M0 13.86h4.8v4.71h-4.8z" clip-rule="evenodd"/><path fill="#102654" fill-rule="evenodd" d="M2.93 22.75v-8.1h4.8v8.1h9.07v4.72h-9.07v6.03h-4.8v-6.03h-2.93v-4.72z" clip-rule="evenodd"/></symbol><use xlink:href="#sprite-ruble" width="24" height="34" y="2458.352"/><view id="sprite-ruble-view" viewBox="0 2458.352 24 34"/><symbol id="sprite-user" fill="none" viewBox="0 0 18 20"><path stroke="#163152" stroke-linecap="square" stroke-linejoin="round" d="M15.67 19h-13.34c-.73 0-1.33-.55-1.33-1.23a4.9 4.9 0 0 1 3.43-4.58l.41-.14a12.8 12.8 0 0 1 8.32 0l.4.14a4.9 4.9 0 0 1 3.44 4.58c0 .68-.6 1.23-1.33 1.23Zm-8.7-9.6a4.8 4.8 0 0 0 4.06 0 4.2 4.2 0 0 0 2.32-2.8l.08-.31a4.1 4.1 0 0 0-.84-3.54l-.12-.14c-.82-1.01-2.1-1.61-3.47-1.61s-2.65.6-3.47 1.6l-.12.15a4.1 4.1 0 0 0-.84 3.54l.08.32a4.2 4.2 0 0 0 2.32 2.8Z"/></symbol><use xlink:href="#sprite-user" width="18" height="20" y="2492.352"/><view id="sprite-user-view" viewBox="0 2492.352 18 20"/><symbol id="sprite-vk" viewBox="0 0 25 25"><path fill="var(--color-background)" d="M12.5 0a12.5 12.5 0 1 0 0 25 12.5 12.5 0 0 0 0-25"/><path fill="var(--color-content)" d="M13.72 15.05c.45-.14 1.01.95 1.62 1.36.45.32.8.25.8.25l1.6-.02s.84-.06.45-.72c-.04-.06-.24-.5-1.2-1.4-1-.95-.87-.8.34-2.43q1.1-1.48.94-1.87c-.08-.25-.63-.18-.63-.18l-1.8.01q-.3-.01-.4.24s-.3.77-.67 1.43c-.8 1.38-1.13 1.45-1.26 1.37-.31-.2-.23-.8-.23-1.24 0-1.34.2-1.9-.4-2.04a3 3 0 0 0-.84-.09c-.64 0-1.2 0-1.5.16-.2.1-.37.33-.27.34.12.02.39.07.53.27.19.26.18.83.18.83s.11 1.58-.25 1.77c-.24.14-.58-.14-1.3-1.4-.36-.63-.64-1.34-.64-1.34s-.05-.14-.15-.2c-.12-.1-.28-.12-.28-.12h-1.72s-.26.02-.35.13 0 .31 0 .31 1.34 3.19 2.87 4.79c1.4 1.47 2.98 1.38 2.98 1.38h.72s.22-.03.33-.15c.1-.1.1-.32.1-.32s-.01-.97.43-1.12"/></symbol><use xlink:href="#sprite-vk" width="25" height="25" y="2512.352"/><view id="sprite-vk-view" viewBox="0 2512.352 25 25"/><symbol id="sprite-watch" fill="none" viewBox="0 0 24 24"><path stroke="#000" stroke-linecap="round" stroke-linejoin="round" stroke-width="2" d="M12 7v5l2.5 1.5m6.5-1.5a9 9 0 1 1-18 0 9 9 0 0 1 18 0"/></symbol><use xlink:href="#sprite-watch" width="800" height="800" y="2537.352"/><view id="sprite-watch-view" viewBox="0 2537.352 800 800"/></svg>